<svg width="60" height="57" viewBox="0 0 60 57" fill="none" xmlns="http://www.w3.org/2000/svg">
<path fill-rule="evenodd" clip-rule="evenodd" d="M11.25 23.2082C11.25 16.1948 17.3361 10.5094 24.8438 10.5094C32.3514 10.5094 38.4375 16.1948 38.4375 23.2082C38.4375 30.2215 32.3514 35.9069 24.8438 35.9069C17.3361 35.9069 11.25 30.2215 11.25 23.2082ZM24.8438 8.75781C16.3006 8.75781 9.375 15.2275 9.375 23.2082C9.375 31.1889 16.3006 37.6585 24.8438 37.6585C28.7873 37.6585 32.3862 36.2799 35.1184 34.0105L49.0246 47.0012C49.3907 47.3432 49.9843 47.3432 50.3504 47.0012C50.7165 46.6592 50.7165 46.1047 50.3504 45.7627L36.442 32.7699C38.8508 30.2221 40.3125 26.8746 40.3125 23.2082C40.3125 15.2275 33.3869 8.75781 24.8438 8.75781Z" fill="black"/>
</svg>
